<svg xmlns="http://www.w3.org/2000/svg" width="512" height="512" viewBox="0 0 512 512">
  <rect width="512" height="512" rx="128" fill="#0f172a"/>
  
  <!-- Outer Ball Base (White Circle) -->
  <circle cx="256" cy="256" r="180" fill="#ffffff" stroke="#0f172a" stroke-width="8"/>
  
  <!-- Central Black Pentagon -->
  <polygon points="256,196 313,238 291,304 221,304 199,238" fill="#0f172a"/>
  
  <!-- Connecting Lines -->
  <line x1="256" y1="196" x2="256" y2="131" stroke="#0f172a" stroke-width="10"/>
  <line x1="313" y1="238" x2="374" y2="218" stroke="#0f172a" stroke-width="10"/>
  <line x1="291" y1="304" x2="329" y2="364" stroke="#0f172a" stroke-width="10"/>
  <line x1="221" y1="304" x2="183" y2="364" stroke="#0f172a" stroke-width="10"/>
  <line x1="199" y1="238" x2="138" y2="218" stroke="#0f172a" stroke-width="10"/>

  <!-- Outer Pentagon Patches -->
  <polygon points="256,131 214,94 230,78 282,78 298,94" fill="#0f172a"/>
  <polygon points="374,218 421,244 433,198 398,156 366,166" fill="#0f172a"/>
  <polygon points="329,364 382,384 416,351 414,306 374,318" fill="#0f172a"/>
  <polygon points="183,364 130,384 96,351 98,306 138,318" fill="#0f172a"/>
  <polygon points="138,218 91,244 79,198 114,156 146,166" fill="#0f172a"/>

  <!-- Emerald Accent Ring -->
  <circle cx="256" cy="256" r="180" fill="none" stroke="#10b981" stroke-width="12"/>
</svg>
